<svg xmlns="http://www.w3.org/2000/svg" xmlns:xlink="http://www.w3.org/1999/xlink" width="200" zoomAndPan="magnify" viewBox="0 0 150 74.999997" height="100" preserveAspectRatio="xMidYMid meet" version="1.0"><path fill="#FFC107" d="M 6.4375 1.230469 C 5.691406 3.175781 6.5 3.304688 8.6875 1.585938 L 10.703125 0 L 8.804688 0 C 7.738281 0 6.703125 0.539062 6.4375 1.230469 M 0.53125 5.71875 C -0.210938 6.460938 -0.113281 18.910156 0.644531 20.105469 C 1.070312 20.773438 2.65625 21.007812 5.695312 20.855469 C 9.550781 20.65625 10.125 20.429688 10.125 19.125 C 10.125 17.992188 9.5 17.535156 7.558594 17.25 C 4.277344 16.769531 3.519531 15 6.59375 15 C 11.058594 15 11.191406 11.75 6.75 11.132812 C 4.132812 10.773438 4.695312 9.449219 7.660156 9 C 9.5 8.71875 10.125 8.246094 10.125 7.125 C 10.125 5.816406 9.550781 5.597656 5.59375 5.40625 C 3.101562 5.285156 0.824219 5.425781 0.53125 5.71875 M 22.816406 6.109375 C 20.664062 7.152344 18.75 10.632812 18.75 13.503906 C 18.75 15.230469 19.464844 16.613281 21.300781 18.449219 C 23.4375 20.589844 24.390625 21 27.199219 21 C 31.347656 21 34.160156 18.972656 35.191406 15.238281 C 36.085938 11.996094 34.820312 8.335938 32.164062 6.472656 C 30.234375 5.125 25.246094 4.929688 22.816406 6.109375 M 24.492188 10.371094 C 22.941406 12.082031 22.921875 13.449219 24.417969 15.582031 C 26.644531 18.761719 30.9375 17.144531 30.9375 13.125 C 30.9375 9.261719 27.011719 7.585938 24.492188 10.371094 M 36.523438 24.253906 C 35.949219 25.757812 37.179688 27.28125 38.550781 26.757812 C 40.28125 26.09375 40.101562 23.25 38.332031 23.25 C 37.550781 23.25 36.738281 23.703125 36.523438 24.253906 M 41.773438 24.253906 C 41.199219 25.757812 42.429688 27.28125 43.800781 26.757812 C 45.53125 26.09375 45.351562 23.25 43.582031 23.25 C 42.800781 23.25 41.988281 23.703125 41.773438 24.253906 M 0.75 46.023438 L 0.75 68.042969 L 7.691406 68.554688 C 17.050781 69.242188 21.832031 68.179688 25.722656 64.550781 C 28.261719 62.179688 28.746094 61.21875 29.0625 57.929688 C 29.265625 55.8125 29.21875 53.226562 28.957031 52.179688 C 28.335938 49.703125 24.226562 45.046875 21.875 44.15625 L 20.03125 43.453125 L 21.546875 41.789062 C 23.855469 39.253906 24.75 37.117188 24.75 34.136719 C 24.75 30.320312 23.128906 27.628906 19.660156 25.679688 C 17.085938 24.234375 15.566406 24 8.710938 24 L 0.75 24 Z M 46.578125 26.953125 C 45.242188 27.777344 45.84375 30.300781 47.445312 30.609375 C 48.40625 30.792969 48.75 30.363281 48.75 28.972656 C 48.75 26.804688 47.976562 26.085938 46.578125 26.953125 M 32.523438 28.121094 C 32.261719 28.796875 32.410156 29.710938 32.851562 30.148438 C 33.992188 31.292969 36.15625 30.25 35.859375 28.699219 C 35.527344 26.972656 33.125 26.554688 32.523438 28.121094 M 85.5 27.53125 C 81.8125 28.886719 81.75 29.207031 81.75 46.859375 C 81.75 63.273438 81.773438 63.511719 83.484375 65.121094 C 85.625 67.128906 87.785156 67.195312 90.105469 65.320312 C 91.6875 64.039062 91.914062 63.117188 92.25 56.585938 C 92.550781 50.710938 92.882812 49.121094 93.9375 48.457031 C 94.890625 47.859375 95.609375 47.859375 96.5625 48.457031 C 97.613281 49.117188 97.949219 50.703125 98.25 56.441406 C 98.542969 62.074219 98.929688 63.9375 100.054688 65.175781 C 101.867188 67.171875 105.289062 67.210938 107.25 65.25 C 108.589844 63.910156 108.75 62.75 108.75 54.433594 C 108.75 45.515625 108.667969 45.015625 106.820312 42.820312 C 104.425781 39.972656 100.445312 38.808594 96.375 39.761719 C 94.726562 40.148438 93.121094 40.472656 92.8125 40.480469 C 92.503906 40.492188 92.25 38.292969 92.25 35.589844 C 92.25 31.378906 91.988281 30.421875 90.410156 28.839844 C 88.570312 27.003906 87.625 26.75 85.5 27.53125 M 7.210938 30.816406 C 6.117188 31.679688 4.699219 33.390625 4.0625 34.625 C 2.980469 36.714844 2.996094 36.890625 4.292969 37.226562 C 5.058594 37.429688 6.007812 38.332031 6.402344 39.234375 C 6.886719 40.328125 7.914062 40.953125 9.5 41.105469 C 12.476562 41.394531 13.355469 39.347656 11.664062 36.074219 C 11.023438 34.835938 10.5 33.300781 10.5 32.664062 C 10.5 30.609375 13.925781 31.375 16.894531 34.097656 C 19.289062 36.289062 19.582031 36.871094 18.773438 37.847656 C 18.246094 38.480469 16.84375 39 15.660156 39 C 14.238281 39 13.5 39.386719 13.5 40.125 C 13.5 42.65625 19.566406 40.71875 20.917969 37.757812 C 22.304688 34.714844 21.972656 33 20.003906 33 C 19.046875 33 17.46875 32.15625 16.5 31.125 C 14.246094 28.726562 10.042969 28.585938 7.210938 30.816406 M 37.179688 30.429688 C 36.53125 31.078125 36 31.921875 36 32.304688 C 36 33.496094 38.933594 36 40.332031 36 C 42.113281 36 45 33.921875 45 32.636719 C 45 30.925781 42.773438 29.25 40.5 29.25 C 39.320312 29.25 37.828125 29.78125 37.179688 30.429688 M 138 32.28125 C 138 33.121094 138.679688 35.144531 139.515625 36.777344 C 141.195312 40.074219 142.203125 45.734375 141.457031 47.679688 C 141.066406 48.695312 140.535156 48.332031 138.714844 45.820312 C 135.980469 42.042969 132.710938 39.949219 128.597656 39.332031 C 117.089844 37.605469 108.429688 49.589844 113.855469 59.726562 C 115.304688 62.4375 119.859375 65.90625 122.65625 66.429688 C 124.132812 66.707031 126.925781 66.695312 128.859375 66.40625 C 130.792969 66.113281 134.570312 65.640625 137.25 65.351562 C 142.675781 64.769531 145.816406 63.402344 145.230469 61.878906 C 145.179688 61.746094 145.15625 61.609375 145.160156 61.46875 C 145.164062 61.324219 145.195312 61.1875 145.25 61.058594 C 145.308594 60.929688 145.386719 60.8125 145.492188 60.714844 C 145.59375 60.617188 145.710938 60.542969 145.84375 60.492188 C 149.1875 59.207031 150.972656 41.851562 148.273438 36.898438 C 147.53125 35.539062 146.347656 34.214844 145.648438 33.957031 C 144.949219 33.703125 143.570312 32.878906 142.585938 32.121094 C 140.160156 30.261719 138 30.335938 138 32.28125 M 6.476562 34.125 C 6.242188 34.742188 6.332031 35.25 6.679688 35.25 C 7.027344 35.25 7.515625 36.261719 7.761719 37.5 C 8.027344 38.820312 8.6875 39.75 9.355469 39.75 C 10.863281 39.75 10.804688 38.15625 9.1875 35.316406 C 7.722656 32.738281 7.113281 32.472656 6.476562 34.125 M 13.09375 33.800781 C 12.820312 34.238281 12.78125 34.78125 13 35 C 13.539062 35.539062 15 34.589844 15 33.707031 C 15 32.746094 13.707031 32.8125 13.09375 33.800781 M 33.917969 40.167969 C 32.308594 41.292969 32.25 41.773438 32.25 53.625 C 32.25 68.273438 32.238281 68.25 40.714844 68.25 C 49.078125 68.25 48.75 68.84375 48.75 53.625 C 48.75 38.40625 49.078125 39 40.714844 39 C 37.285156 39 35.03125 39.386719 33.917969 40.167969 M 61.875 40.773438 C 52.347656 45.191406 51.328125 58.476562 60.074219 64.261719 C 62.871094 66.113281 63.96875 66.375 68.976562 66.375 C 75.816406 66.375 78.75 64.949219 78.75 61.625 C 78.75 57.664062 77.25 56.664062 71.632812 56.871094 C 65.949219 57.082031 64.5 56.335938 64.5 53.199219 C 64.5 49.902344 66.851562 48.707031 72.242188 49.269531 C 76.066406 49.667969 76.871094 49.535156 77.734375 48.351562 C 79.28125 46.238281 78.957031 43.953125 76.828125 41.957031 C 75.226562 40.449219 74.007812 40.113281 69.515625 39.941406 C 66.074219 39.804688 63.3125 40.109375 61.875 40.773438 M 7.832031 50.46875 C 4.714844 53.585938 3.628906 56.375 5.164062 57.320312 C 5.527344 57.546875 6.234375 56.746094 6.730469 55.546875 C 7.890625 52.75 10.171875 50.613281 10.84375 51.703125 C 11.117188 52.140625 12.148438 52.5 13.140625 52.5 C 15.375 52.5 18.863281 56.101562 18.582031 58.125 C 18.445312 59.125 17.707031 59.703125 16.367188 59.855469 C 13.542969 60.183594 12.164062 61.964844 14.230469 62.617188 C 16.335938 63.289062 20.433594 60.816406 21.300781 58.355469 C 21.882812 56.691406 21.617188 56.046875 19.429688 53.832031 C 18.023438 52.414062 16.269531 51.03125 15.527344 50.761719 C 14.777344 50.488281 14.277344 49.683594 14.402344 48.945312 C 14.554688 48.050781 14.066406 47.546875 12.894531 47.378906 C 11.664062 47.203125 10.214844 48.089844 7.832031 50.46875 M 124.710938 48.765625 C 120.890625 50.300781 122.085938 57.132812 126.257812 57.617188 C 129.160156 57.953125 130.5 56.558594 130.5 53.199219 C 130.5 51.089844 130.0625 50.027344 128.832031 49.167969 C 126.949219 47.847656 126.980469 47.851562 124.710938 48.765625 M 12 55.125 C 12 55.742188 12.507812 56.25 13.125 56.25 C 13.742188 56.25 14.25 55.742188 14.25 55.125 C 14.25 54.507812 13.742188 54 13.125 54 C 12.507812 54 12 54.507812 12 55.125 " fill-opacity="1" fill-rule="evenodd"/></svg>