<svg xmlns="http://www.w3.org/2000/svg" viewBox="0 0 71.024 64.13">
  <defs>
    <style>
      .cls-1 {
        fill: #ffffff;
      }
    </style>
  </defs>
  <path id="Union_3" data-name="Union 3" class="cls-1" d="M257,156.931a32.27,32.27,0,0,1-6.958-2.369,36.32,36.32,0,0,1-4.5-2.235,47.557,47.557,0,0,1-5.783-4.127,37.511,37.511,0,0,1-5.361-5.547,35.839,35.839,0,0,1-4.657-7.336c-.46-1.048-1.024-2.051-1.466-3.106a56.376,56.376,0,0,1-3.764-14.441,58.857,58.857,0,0,1-.509-7.591,5.286,5.286,0,0,1,4.109-5.512,68.084,68.084,0,0,1,11.8-2.212,55.112,55.112,0,0,1,8.59-.153,36.17,36.17,0,0,1,4.388.505c.659.113.85-.133,1.082-.646q1.366-3.017,2.808-6a3.973,3.973,0,0,1,4.09-2.1c1.963.389,3.913.873,5.835,1.431a40.748,40.748,0,0,1,4.857,1.711c1.8.781,3.505,1.768,5.276,2.616a32,32,0,0,1,5.828,4.063,24.46,24.46,0,0,1,4.477,4.526c.368.492.75.974,1.119,1.464a31.767,31.767,0,0,1,5.8,12.467,38,38,0,0,1,.941,9.748,52.327,52.327,0,0,1-1.232,8.49,43.09,43.09,0,0,1-2.735,8c-.368.866-.725,1.737-1.082,2.607a7.091,7.091,0,0,1-4.45,4.291,50.125,50.125,0,0,1-5.936,1.512c-2.166.416-4.363.692-6.559.919-1.586.164-3.19.15-4.786.216q-.476.014-.952.014A53.318,53.318,0,0,1,257,156.931Zm26.6-23.543a4.8,4.8,0,0,0-1.613,4.057,4.963,4.963,0,0,0,6.542,4.626,3.852,3.852,0,0,0,2.194-1.857c.167-.281.189-.531-.121-.74-.258-.174-.506-.276-.769-.017-.087.086-.167.181-.26.261-1.687,1.447-3.582,1.091-4.745-1,.36-.169.65-.318.949-.444,1.279-.54,2.569-1.055,3.84-1.615.812-.358.839-.466.645-1.32a4,4,0,0,0-4.007-2.9A4.069,4.069,0,0,0,283.6,133.388Zm-43.445-.958a4.652,4.652,0,0,0-4.631,4.86,4.977,4.977,0,0,0,4.98,5.015,4.881,4.881,0,0,0,4.684-4.882,5.059,5.059,0,0,0-4.952-4.993Zm37.658,9.641c1.351,0,2.7.007,4.052,0H282c.361.007.733.014.792-.527.057-.519-.194-.721-.686-.8a1.22,1.22,0,0,1-1.056-1.306c-.016-.409,0-.819-.019-1.227-.043-1.1-.02-2.213-.161-3.3a2.632,2.632,0,0,0-2.817-2.5,3.387,3.387,0,0,0-2.369.833c-.295.241-.579.494-.977.835.078-.714.138-1.265.217-1.99-.742.351-1.306.669-1.906.888s-1.268.316-1.886.525a.594.594,0,0,0-.109,1.119c.882.344.978,1.02.993,1.777.019.941.007,1.882.006,2.824,0,.767-.229,1.386-1.087,1.533a.637.637,0,0,0-.623.746c.036.487.368.573.777.572q1.491,0,2.983,0h1.683c.345,0,.67-.041.715-.482.041-.4-.014-.734-.505-.821-.971-.172-1.189-.893-1.205-1.729-.017-.859.035-1.721-.016-2.578a2.064,2.064,0,0,1,1.179-1.991c1.275-.767,2.3-.255,2.366,1.221.058,1.225.034,2.456,0,3.683-.014.579-.122,1.173-.8,1.381-.483.15-.475.511-.43.884.052.431.387.431.7.431ZM258.1,128.786a.678.678,0,0,0-.087,1.249c.957.363.986,1.1.988,1.888.008,2.373,0,4.747.005,7.12,0,.847-.159,1.559-1.153,1.736-.508.091-.488.484-.448.858s.324.43.63.431l4.665,0c.343,0,.671-.032.709-.482.033-.392,0-.736-.5-.826-.9-.163-1.131-.839-1.18-1.628-.018-.285-.006-.573-.006-.859q0-4.91,0-9.821v-1.35C260.385,127.724,259.232,128.235,258.1,128.786Zm-12.873,4.7c-.192.067-.445.326-.442.493a.859.859,0,0,0,.356.675c.854.344.966,1.046.98,1.807.017.9.009,1.8,0,2.7,0,.817-.277,1.455-1.181,1.605-.486.081-.569.393-.531.8.04.44.35.5.7.5l4.669,0c.311,0,.588-.066.627-.435s.052-.747-.444-.869c-.88-.216-1.116-.857-1.1-1.677a24.7,24.7,0,0,0-.012-2.579,2.1,2.1,0,0,1,1.325-2.142c1.144-.615,2.067-.11,2.122,1.177.05,1.186.012,2.375.022,3.563.006.769-.034,1.476-.975,1.742-.393.111-.365.543-.249.838a.721.721,0,0,0,.54.363c1.157.023,2.315.021,3.473.019h1.073c.318,0,.577-.091.6-.459.022-.324.076-.724-.364-.792-1.254-.2-1.379-1.081-1.369-2.095.01-1.146.014-2.294-.029-3.44a2.734,2.734,0,0,0-1.734-2.608,3.122,3.122,0,0,0-3.257.341c-.352.271-.692.555-1.162.934v-1.66C247.6,132.7,246.407,133.072,245.225,133.487Zm19.615.372c-.349.075-.618.23-.64.627a.667.667,0,0,0,.458.765,1.461,1.461,0,0,1,.9,1.584c.005.7-.015,1.391.01,2.086.035.956-.179,1.707-1.291,1.88-.42.065-.453.416-.421.763a.511.511,0,0,0,.579.5c1.636,0,3.273.02,4.908-.017a.848.848,0,0,0,.606-.453.529.529,0,0,0-.373-.774c-1.285-.191-1.339-1.1-1.33-2.1.016-1.759.006-3.518,0-5.277,0-.392-.021-.783-.04-1.46A8.036,8.036,0,0,1,264.84,133.859Zm1.971-5.658a1.643,1.643,0,0,0-1.389,1.49A1.714,1.714,0,0,0,266.858,131a1.4,1.4,0,1,0,0-2.8Zm10.872-6c-.475.3-.4.642-.166,1.044.448.781.865,1.581,1.33,2.351.309.511.788.684,1.23.314a.879.879,0,0,1,.98-.143,5.086,5.086,0,0,0,3.934-.347,2.735,2.735,0,0,0,1.626-2.673,2.664,2.664,0,0,0-1.954-2.43c-.73-.261-1.485-.454-2.226-.686a11.64,11.64,0,0,1-1.39-.473c-.616-.283-.8-.637-.707-1.143.083-.44.488-.723,1.138-.723a3.172,3.172,0,0,1,2.045.72c.443.362.855.762,1.267,1.159a.564.564,0,0,0,.774.04.522.522,0,0,0,.25-.723c-.283-.68-.533-1.375-.85-2.038-.216-.451-.756-.633-.994-.29-.359.518-.693.314-1.1.22-.475-.111-.959-.183-1.285-.244a8.131,8.131,0,0,0-1.144.068,2.7,2.7,0,0,0-2.427,2.369,2.481,2.481,0,0,0,1.48,2.472c.943.475,1.974.772,2.95,1.185a7.828,7.828,0,0,1,1.612.843c.472.348.431.774-.029,1.122a1.673,1.673,0,0,1-.771.33,3.981,3.981,0,0,1-2.832-.552,9.925,9.925,0,0,1-1.714-1.548.846.846,0,0,0-.6-.374A.818.818,0,0,0,277.682,122.2Zm-8.977-3.7a5.43,5.43,0,0,0,1.215,6.3,4.8,4.8,0,0,0,6.554-.157,2.779,2.779,0,0,0,.575-.924.687.687,0,0,0-.251-.591.788.788,0,0,0-.651-.052c-.212.084-.35.336-.544.482a2.839,2.839,0,0,1-4.5-1.065,1.255,1.255,0,0,1,.273-.23c1.458-.641,2.912-1.292,4.384-1.9.952-.394,1.058-.571.7-1.557a3.947,3.947,0,0,0-3.518-2.631c-.1-.005-.2-.008-.3-.008A4.126,4.126,0,0,0,268.705,118.5Zm-14.357-2.344c-3.229.186-4.687,1.982-4.7,4.831a4.832,4.832,0,0,0,4.818,5.02,4.9,4.9,0,0,0,4.834-4.838,4.99,4.99,0,0,0-4.945-5.013Zm-16.564-3.365a11.856,11.856,0,0,0-.817,2.546c-.208.883-.155.906-1.085,1.053-.319.051-.548.14-.563.507-.014.333.111.56.46.606.84.11,1.036.69,1.039,1.41.005,1.392.012,2.783.007,4.175a1.232,1.232,0,0,1-.965,1.376.634.634,0,0,0-.54.806c.068.5.443.526.823.53.7.006,1.392,0,2.088,0,.737,0,1.474,0,2.21,0,.35,0,.67-.076.752-.476a.627.627,0,0,0-.489-.836,1.583,1.583,0,0,1-1.107-1.715c-.022-1.432.007-2.866-.014-4.3-.007-.508.143-.763.693-.73.489.029.982,0,1.473-.006s.575-.346.568-.755a.531.531,0,0,0-.611-.59c-.13,0-.26,0-.39,0a10.193,10.193,0,0,1-1.2-.037c-.184-.02-.483-.244-.493-.39a6.922,6.922,0,0,1,.391-3.376c.262-.581.6-.8,1-.7a1.008,1.008,0,0,1,.66,1.173,7.169,7.169,0,0,1-.281.931c-.085.3.048.5.361.452a10.539,10.539,0,0,0,1.432-.329,1.352,1.352,0,0,0,.9-1.924,2.058,2.058,0,0,0-1.264-1.265,5.424,5.424,0,0,0-1.58-.246A3.689,3.689,0,0,0,237.784,112.795Zm26.2,13.01c.355,0,.659-.079.73-.493s-.035-.712-.5-.824a1.372,1.372,0,0,1-1.064-1.462c-.028-1.105-.053-2.214.006-3.316a1.931,1.931,0,0,1,1.268-1.8.9.9,0,0,1,1.319.9,6.187,6.187,0,0,1-.14.719c-.065.477.091.612.554.438s.895-.4,1.344-.6a1.085,1.085,0,0,0,.647-.959,1.908,1.908,0,0,0-1.729-2.237,3.83,3.83,0,0,0-3.4,1.448l.179-1.642c-1.288.4-2.416.734-3.531,1.111a1.107,1.107,0,0,0-.6.49.553.553,0,0,0,.337.8c.644.2.763.7.79,1.244.053,1.1.121,2.207.087,3.308-.022.708-.232,1.4-1.1,1.567-.487.092-.559.425-.49.825s.405.473.747.474q1.6,0,3.2,0Zm-18.717-13.367c-.324.149-.624.329-.545.7a.889.889,0,0,0,.465.6c.589.17.732.62.828,1.1a5.731,5.731,0,0,1,.085,1.1c.007,2.167-.016,4.334.012,6.5.013.991-.182,1.8-1.28,2.071-.419.106-.452.421-.416.767.044.422.354.519.7.521q2.331.009,4.661,0c.319,0,.565-.122.586-.482.019-.326.064-.685-.361-.806-1.044-.3-1.185-1.084-1.18-2.015.019-3.435.009-6.87.006-10.3,0-.436-.022-.872-.037-1.432C247.467,111.393,246.371,111.928,245.264,112.438ZM239.656,140.1a5.552,5.552,0,0,1-1.825-4.24,1.9,1.9,0,0,1,2.128-1.874,5.282,5.282,0,0,1,1.1.676,5.815,5.815,0,0,1,1.809,3.769,1.741,1.741,0,0,1-.925,1.959,2.555,2.555,0,0,1-1.015.231A1.777,1.777,0,0,1,239.656,140.1Zm44.814-3.061a2.644,2.644,0,0,1,.688-2.773,3.082,3.082,0,0,1,.645-.275c.943-.033,1.839,1.163,1.55,1.886a.542.542,0,0,1-.234.263c-.721.368-1.442.736-2.181,1.064a.193.193,0,0,1-.077.013A.531.531,0,0,1,284.47,137.038ZM253.5,123.574a6.494,6.494,0,0,1-1.573-3.648,1.993,1.993,0,0,1,1.063-2.04,1.866,1.866,0,0,1,2.229.487,5.456,5.456,0,0,1,1.693,3.971,1.718,1.718,0,0,1-1.073,1.832,1.918,1.918,0,0,1-.725.139A2.152,2.152,0,0,1,253.5,123.574Zm17.395-5.027a1.435,1.435,0,0,1,1.732-.79,1.569,1.569,0,0,1,.974,1.647,1.2,1.2,0,0,1-.611.657c-.686.344-1.409.613-2.156.929A2.549,2.549,0,0,1,270.9,118.547Z" transform="translate(-224 -94)"/>
</svg>
